<?xml version="1.0"?>
<svg xmlns="http://www.w3.org/2000/svg" xmlns:xlink="http://www.w3.org/1999/xlink" xmlns:svgjs="http://svgjs.com/svgjs" version="1.1" width="512" height="512" x="0" y="0" viewBox="0 0 36 36" style="enable-background:new 0 0 512 512" xml:space="preserve" class=""><g transform="matrix(1,0,0,1,-1.4210854715202004e-14,-1.0658141036401503e-14)"><path xmlns="http://www.w3.org/2000/svg" d="m34.928 20.591c-3.693-5.848-3.199-11.778-4.979-14.596s-7.138-7.714-20.103.473-9.84 17.35-7.882 20.45c9.166 14.515 39.504 4.031 32.964-6.327z" fill="#efefef" data-original="#efefef" style="" class=""/><path xmlns="http://www.w3.org/2000/svg" d="m29.25 11.75v12.5c0 1.105-.895 2-2 2h-18.5c-1.105 0-2-.895-2-2v-12.5c0-1.105.895-2 2-2h18.5c1.105 0 2 .895 2 2z" fill="#f3f3f1" data-original="#f3f3f1" style="" class=""/><path xmlns="http://www.w3.org/2000/svg" d="m9 24.25v-12.5c0-1.105.895-2 2-2h-2.25c-1.105 0-2 .895-2 2v12.5c0 1.105.895 2 2 2h2.25c-1.105 0-2-.895-2-2z" fill="#d5dbe1" data-original="#d5dbe1" style="" class=""/><circle xmlns="http://www.w3.org/2000/svg" cx="13.5" cy="15.5" fill="#7e41cc" r="1.75" data-original="#2fdf84" style="" class=""/><path xmlns="http://www.w3.org/2000/svg" d="m15.25 19.75h-3.5c-1.105 0-2 .895-2 2v.5h7.5v-.5c0-1.105-.895-2-2-2z" fill="#7e41cc" data-original="#2fdf84" style="" class=""/><path xmlns="http://www.w3.org/2000/svg" d="m14 19.75h-2.25c-1.105 0-2 .895-2 2v.5h2.25v-.5c0-1.105.895-2 2-2z" fill="#4f2980" data-original="#00b871" style="" class=""/><path xmlns="http://www.w3.org/2000/svg" d="m13.5 17.25c.431 0 .82-.162 1.125-.42-.379-.321-.625-.794-.625-1.33s.246-1.009.625-1.33c-.305-.258-.694-.42-1.125-.42-.966 0-1.75.784-1.75 1.75s.784 1.75 1.75 1.75z" fill="#4f2980" data-original="#00b871" style="" class=""/><g xmlns="http://www.w3.org/2000/svg" fill="#a4afc1"><path d="m30.033 4.644h2v1h-2z" transform="matrix(.707 -.707 .707 .707 5.452 23.45)" fill="#a4afc1" data-original="#a4afc1" style="" class=""/><path d="m26.467 3.967h1v2h-1z" transform="matrix(.707 -.707 .707 .707 4.384 20.519)" fill="#a4afc1" data-original="#a4afc1" style="" class=""/><path d="m30.533 8.033h1v2h-1z" transform="matrix(.707 -.707 .707 .707 2.7 24.585)" fill="#a4afc1" data-original="#a4afc1" style="" class=""/></g><path xmlns="http://www.w3.org/2000/svg" d="m27.25 27h-18.5c-1.517 0-2.75-1.233-2.75-2.75v-12.5c0-1.517 1.233-2.75 2.75-2.75h18.5c1.517 0 2.75 1.233 2.75 2.75v12.5c0 1.517-1.233 2.75-2.75 2.75zm-18.5-16.5c-.689 0-1.25.561-1.25 1.25v12.5c0 .689.561 1.25 1.25 1.25h18.5c.689 0 1.25-.561 1.25-1.25v-12.5c0-.689-.561-1.25-1.25-1.25z" fill="#000000" data-original="#000000" style="" class=""/><path xmlns="http://www.w3.org/2000/svg" d="m13.5 18c-1.378 0-2.5-1.122-2.5-2.5s1.122-2.5 2.5-2.5 2.5 1.122 2.5 2.5-1.122 2.5-2.5 2.5zm0-3.5c-.551 0-1 .449-1 1s.449 1 1 1 1-.449 1-1-.449-1-1-1z" fill="#000000" data-original="#000000" style="" class=""/><path xmlns="http://www.w3.org/2000/svg" d="m18 22.25h-1.5v-.5c0-.689-.561-1.25-1.25-1.25h-3.5c-.689 0-1.25.561-1.25 1.25v.5h-1.5v-.5c0-1.517 1.233-2.75 2.75-2.75h3.5c1.517 0 2.75 1.233 2.75 2.75z" fill="#000000" data-original="#000000" style="" class=""/><path xmlns="http://www.w3.org/2000/svg" d="m20.75 13.5h5.5v1.5h-5.5z" fill="#000000" data-original="#000000" style="" class=""/><path xmlns="http://www.w3.org/2000/svg" d="m20.75 17.5h5.5v1.5h-5.5z" fill="#000000" data-original="#000000" style="" class=""/><path xmlns="http://www.w3.org/2000/svg" d="m20.75 21.5h5.5v1.5h-5.5z" fill="#000000" data-original="#000000" style="" class=""/></g></svg>
